{"title":"Witchville.2010.DvDRip.XviD.Ac3.Feel-Free","uid":6516364,"size":1284078841,"categoryP":"video","categoryS":"movies","magnet":"?xt=urn:btih:5a24e5dd021aed5d1f4206da51010bda238e3988&amp;dn=Witchville.2010.DvDRip.XviD.Ac3.Feel-Free&amp;tr=udp%3A%2F%2Ftracker.openbittorrent.com%3A80&amp;tr=udp%3A%2F%2Fopen.demonii.com%3A1337&amp;tr=udp%3A%2F%2Ftracker.coppersurfer.tk%3A6969&amp;tr=udp%3A%2F%2Fexodus.desync.com%3A6969","seeders":1,"leechers":0,"uploader":".BONE.","files":10,"time":1309842263,"description":"\nGenre:Fantasy\nLanguage:English\n &lt;a href=&quot;\nhttp://www.imdb.com/title/tt1506458/&quot; rel=&quot;nofollow&quot; target=&quot;_NEW&quot;&gt;\nhttp://www.imdb.com/title/tt1506458/&lt;/a&gt;\n\nSource:DVD Thanks!\nSubtitles:Romana\n\nFormat : AVI\nFormat/Info : Audio Video Interleave\nFile size : 1.19 GiB\nDuration : 1h 29mn\nOverall bit rate : 1 910 Kbps\n\nVideo\nID : 0\nFormat : MPEG-4 Visual\nFormat profile : Advanced Simple@L5\nFormat settings, BVOP : Yes\nFormat settings, QPel : No\nFormat settings, GMC : No warppoints\nFormat settings, Matrix : Default (H.263)\nCodec ID : XVID\nCodec ID/Hint : XviD\nDuration : 1h 29mn\nBit rate : 1 452 Kbps\nWidth : 720 pixels\nHeight : 400 pixels\nDisplay aspect ratio : 16:9\nFrame rate : 23.976 fps\nColor space : YUV\nChroma subsampling : 4:2:0\nBit depth : 8 bits\nScan type : Progressive\nBits/(Pixel*Frame) : 0.210\nStream size : 929 MiB (76%)\nWriting library : XviD 1.2.1 (UTC 2008-12-04)\n\nAudio\nID : 1\nFormat : AC-3\nFormat/Info : Audio Coding 3\nMode extension : CM (complete main)\nCodec ID : 2000\nDuration : 1h 29mn\nBit rate mode : Constant\nBit rate : 448 Kbps\nChannel(s) : 6 channels\nChannel positions : Front: L C R, Side: L R, LFE\nSampling rate : 48.0 KHz\nBit depth : 16 bits\nStream size : 287 MiB (23%)\nAlignment : Aligned on interleaves\nInterleave, duration : 42 ms (1.00 video frame)\nInterleave, preload duration : 512 ms\n &lt;a href=&quot;\nhttp://leetleech.org/images/69261152328846251956.png&quot; rel=&quot;nofollow&quot; target=&quot;_NEW&quot;&gt;\nhttp://leetleech.org/images/69261152328846251956.png&lt;/a&gt;\n &lt;a href=&quot;\nhttp://leetleech.org/images/00664701691244583809.png&quot; rel=&quot;nofollow&quot; target=&quot;_NEW&quot;&gt;\nhttp://leetleech.org/images/00664701691244583809.png&lt;/a&gt;\n &lt;a href=&quot;\nhttp://leetleech.org/images/86124250293322524648.png&quot; rel=&quot;nofollow&quot; target=&quot;_NEW&quot;&gt;\nhttp://leetleech.org/images/86124250293322524648.png&lt;/a&gt;\n &lt;a href=&quot;\nhttp://leetleech.org/images/67494512114279052539.png&quot; rel=&quot;nofollow&quot; target=&quot;_NEW&quot;&gt;\nhttp://leetleech.org/images/67494512114279052539.png&lt;/a&gt;\n &lt;a href=&quot;\nhttp://leetleech.org/images/22828520590417251399.png&quot; rel=&quot;nofollow&quot; target=&quot;_NEW&quot;&gt;\nhttp://leetleech.org/images/22828520590417251399.png&lt;/a&gt;","torrent":{"xt":"urn:btih:5a24e5dd021aed5d1f4206da51010bda238e3988","amp;dn":"Witchville.2010.DvDRip.XviD.Ac3.Feel-Free","amp;tr":["udp%3A%2F%2Ftracker.openbittorrent.com%3A80","udp%3A%2F%2Fopen.demonii.com%3A1337","udp%3A%2F%2Ftracker.coppersurfer.tk%3A6969","udp%3A%2F%2Fexodus.desync.com%3A6969"],"infoHash":"5a24e5dd021aed5d1f4206da51010bda238e3988","infoHashBuffer":{"type":"Buffer","data":[90,36,229,221,2,26,237,93,31,66,6,218,81,1,11,218,35,142,57,136]},"announce":[],"urlList":[]}}